<svg width="9" height="16" viewBox="0 0 9 16" fill="none" xmlns="http://www.w3.org/2000/svg">
<g style="mix-blend-mode:multiply" clip-path="url(#clip0_1411_186)">
<path d="M1.81258 14.2274C1.61212 14.049 1.37131 13.9674 1.27456 14.045C1.17781 14.1226 1.26173 14.33 1.46219 14.5084C1.66264 14.6868 1.90345 14.7684 2.0002 14.6908C2.09695 14.6132 2.01303 14.4058 1.81258 14.2274Z" fill="black"/>
<path d="M0.537857 12.9717C0.631402 12.9677 0.673363 12.8045 0.631937 12.6069C0.59051 12.4093 0.480929 12.2522 0.387384 12.2559C0.29384 12.2597 0.251878 12.4231 0.293305 12.6207C0.334732 12.8183 0.444313 12.9754 0.537857 12.9717Z" fill="black"/>
<path d="M2.53111 15.299C2.34161 15.1977 2.13849 15.179 2.07782 15.2577C2.01715 15.3364 2.12138 15.4822 2.31114 15.5836C2.50064 15.6849 2.70377 15.7036 2.76444 15.6249C2.82511 15.5462 2.72087 15.4004 2.53111 15.299Z" fill="black"/>
<path d="M0.490939 13.4488C0.411293 13.4699 0.406215 13.6181 0.479714 13.78C0.552946 13.9419 0.67696 14.056 0.756339 14.0349C0.835985 14.0139 0.841064 13.8656 0.767564 13.7037C0.694332 13.5419 0.570319 13.4277 0.490939 13.4488Z" fill="black"/>
<path d="M3.81995 15.2099C3.56177 15.1363 3.3092 15.1672 3.25601 15.279C3.20283 15.391 3.3688 15.5414 3.62699 15.615C3.88517 15.6886 4.13774 15.6576 4.19093 15.5459C4.24411 15.4339 4.07814 15.2835 3.81995 15.2099Z" fill="black"/>
<path d="M5.8592 15.0807C5.67665 15.1679 5.5497 15.3113 5.57562 15.4009C5.60155 15.4905 5.77073 15.4927 5.95328 15.4055C6.13582 15.3183 6.26278 15.1748 6.23685 15.0852C6.21093 14.9956 6.04174 14.9935 5.8592 15.0807Z" fill="black"/>
<path d="M4.93622 15.6652C4.73389 15.6698 4.5591 15.7482 4.54573 15.8404C4.53237 15.933 4.68552 16.0042 4.88784 15.9999C5.09016 15.9954 5.26496 15.917 5.27832 15.8247C5.29169 15.7324 5.13854 15.661 4.93622 15.6652Z" fill="black"/>
<path d="M7.4485 4.82284C7.82214 4.59698 8.18697 4.12364 8.26661 3.93378C7.9956 3.96524 7.75586 3.97031 7.53429 3.94391C7.88388 3.66418 8.20033 3.11991 8.25699 2.93804C7.98999 3.01244 7.75613 3.05218 7.50917 3.04764C7.79568 2.73431 7.97475 2.18151 7.99186 1.98551C7.71604 2.14338 7.51933 2.22284 7.28012 2.26684C7.50837 1.84578 7.51772 1.25244 7.46053 1.01724C7.255 1.23538 7.03637 1.42578 6.79716 1.58178C6.8573 1.12178 6.70308 0.514577 6.58415 0.341777C6.4906 0.58871 6.36659 0.804443 6.22895 0.99911C6.03143 0.58151 5.51239 0.11431 5.37261 0.000976562L5.54286 1.01431C5.74652 2.81458 5.46829 4.79751 3.96998 4.79751C2.61411 4.79991 1.75831 3.79244 1.8238 2.25058C1.86255 1.33804 2.40858 0.63111 3.38947 0.67271C3.04014 0.0457765 1.68802 -0.0963568 1.02118 0.49271C0.52994 0.92631 0.0940223 1.86178 0.010634 3.82524C-0.204519 8.88818 2.90437 9.48791 3.96944 9.48791C4.77125 9.48791 5.43489 9.26018 6.13112 8.79911C7.48325 7.90364 8.01084 6.29751 8.15008 4.78871C8.15008 4.78844 8.15035 4.78791 8.15062 4.78764C7.92478 4.82631 7.69145 4.85244 7.4485 4.82258V4.82284ZM0.326548 4.69698C0.313719 4.70284 0.298484 4.69484 0.284586 4.69351C0.27443 4.42364 0.275232 4.13858 0.288061 3.83698C0.361293 2.11511 0.731729 1.11831 1.20533 0.700177C1.3812 0.544977 1.63884 0.442577 1.92643 0.408443C1.95075 0.486043 1.96197 0.567643 1.95903 0.648977C1.95797 0.67831 1.95476 0.70871 1.94006 0.734043C1.92295 0.763643 1.89222 0.78311 1.86121 0.798043C1.71475 0.868443 1.53407 0.863643 1.39162 0.78551C1.31812 0.94791 1.32721 1.14924 1.4293 1.29538C1.49398 1.38791 1.59662 1.45324 1.70673 1.47591C1.61479 1.69938 1.55786 1.95431 1.54583 2.23804C1.53194 2.56578 1.90959 3.96818 0.326815 4.69671L0.326548 4.69698Z" fill="black"/>
<path d="M6.13688 9.12451C5.42434 9.56665 4.74868 9.76531 3.96852 9.76531C3.64646 9.76531 2.67974 9.70771 1.74643 9.08691C1.21376 9.41865 0.934198 9.76611 0.934198 9.76611V9.76745C0.905867 9.88451 0.891969 10.0042 0.892236 10.1245L0.892771 10.3712C0.881011 10.5453 0.825953 10.7136 0.732676 10.8613L0.607059 11.0602C0.481442 11.3272 0.505496 11.6402 0.670669 11.8848L0.933931 12.2176C1.03122 12.3405 1.0828 12.4933 1.08039 12.6498L1.07612 12.9109C1.07104 13.2344 1.27283 13.525 1.57832 13.6338L1.83998 13.6981C2.04578 13.7488 2.21923 13.8864 2.31465 14.0754L2.42664 14.2973C2.58486 14.6104 2.92643 14.7869 3.27415 14.7352L3.72316 14.6682C3.88593 14.644 4.05084 14.6957 4.17031 14.8085L4.35045 14.9784C4.65781 15.268 5.13595 15.2754 5.45187 14.9952L5.63495 14.7925C5.78061 14.6312 5.96717 14.5632 6.20744 14.5485C6.58697 14.5256 6.84087 14.2805 6.9117 14.0978C7.05522 13.7274 7.28213 13.6784 7.43662 13.6197C7.5911 13.561 7.64429 13.388 7.68411 13.2378L7.69213 13.2077C7.72687 13.077 7.83512 13.0042 7.83512 13.0042C7.83512 13.0042 8.19914 10.3781 6.13608 9.12478L6.13688 9.12451ZM1.17314 11.8378C1.02454 11.8056 0.916291 11.5714 0.931525 11.3146C0.946759 11.0581 1.07959 10.8762 1.22846 10.9085C1.37706 10.9408 1.48531 11.1749 1.47007 11.4317C1.45484 11.6882 1.32201 11.8701 1.17314 11.8378ZM2.07384 13.4354C1.92577 13.4976 1.66679 13.3261 1.49493 13.0525C1.32308 12.7789 1.30383 12.5066 1.45163 12.4445C1.5997 12.3824 1.85869 12.5538 2.03054 12.8274C2.2024 13.101 2.22164 13.3733 2.07384 13.4354ZM3.67479 14.3093C3.6673 14.3189 3.65822 14.3272 3.64833 14.3349C3.60156 14.372 3.53019 14.3901 3.4444 14.3893C3.44387 14.3893 3.4436 14.3893 3.44306 14.3893C3.39549 14.3888 3.34364 14.3824 3.28938 14.3709C3.25865 14.3642 3.22711 14.3562 3.1953 14.3461C3.12475 14.3237 3.05205 14.2928 2.98122 14.2536C2.94567 14.2341 2.91227 14.2133 2.88126 14.1917C2.86576 14.181 2.85079 14.1701 2.83636 14.1589C2.80776 14.1368 2.7813 14.1138 2.75778 14.0909C2.75725 14.0904 2.75698 14.0898 2.75645 14.0893C2.73988 14.073 2.72518 14.0565 2.71128 14.0402C2.64713 13.964 2.61266 13.8874 2.61666 13.8226C2.61854 13.793 2.62842 13.7658 2.64687 13.7421C2.66745 13.7157 2.69791 13.6965 2.7348 13.6832C2.86282 13.637 3.0753 13.6674 3.2827 13.7677C3.28404 13.7685 3.28564 13.769 3.28698 13.7696C3.30489 13.7784 3.32279 13.7877 3.34043 13.7973C3.5179 13.8952 3.64272 14.0213 3.68735 14.1328C3.69189 14.144 3.69537 14.1549 3.69831 14.1658C3.71247 14.22 3.70579 14.2693 3.67479 14.3088V14.3093ZM5.48822 14.5837C5.47352 14.6685 5.38398 14.7437 5.25462 14.7946C5.24099 14.8 5.22709 14.805 5.21266 14.8098C5.19743 14.8149 5.18166 14.8197 5.16535 14.824C5.07154 14.8496 4.96463 14.864 4.85238 14.8629C4.84303 14.8629 4.83367 14.8626 4.82432 14.8624C4.82218 14.8624 4.82004 14.8624 4.81817 14.8624C4.76365 14.8602 4.7118 14.8544 4.66342 14.8456C4.64712 14.8426 4.63135 14.8392 4.61611 14.8354C4.60248 14.8322 4.58939 14.8288 4.57629 14.825C4.40363 14.7744 4.29726 14.6792 4.31624 14.5712C4.32319 14.5317 4.34617 14.4944 4.38172 14.4605C4.44827 14.3973 4.55919 14.3466 4.69175 14.3181C4.7722 14.3008 4.8604 14.2912 4.95207 14.292C4.98067 14.2922 5.00873 14.2936 5.036 14.296C5.25542 14.3141 5.42354 14.3925 5.47432 14.4946C5.47592 14.4978 5.47753 14.5013 5.47886 14.5048C5.481 14.5101 5.48287 14.5154 5.48448 14.5208C5.49036 14.5413 5.49169 14.5624 5.48795 14.5842L5.48822 14.5837ZM6.456 14.2106C6.22268 14.348 5.98561 14.3389 5.92654 14.1901C5.86747 14.0416 6.00859 13.8096 6.24219 13.6725C6.47551 13.5352 6.71258 13.5442 6.77165 13.693C6.83072 13.8418 6.6896 14.0736 6.456 14.2106ZM7.11055 12.9693C7.12151 12.9586 7.133 12.9488 7.14422 12.9397C7.20222 12.8922 7.26289 12.8634 7.31661 12.8552C7.3273 12.8536 7.33799 12.8525 7.34815 12.8525C7.34895 12.8525 7.35002 12.8525 7.35082 12.8525C7.39332 12.8533 7.42913 12.869 7.45185 12.9013C7.45934 12.912 7.46522 12.924 7.46922 12.937C7.47323 12.9501 7.47564 12.9642 7.47644 12.9792C7.48072 13.069 7.42619 13.1877 7.33024 13.2802C7.25033 13.3576 7.16053 13.3984 7.0897 13.3973C7.04721 13.3965 7.01139 13.3808 6.98867 13.3485C6.97344 13.3272 6.96542 13.3002 6.96408 13.2704C6.95981 13.1805 7.01433 13.0618 7.11028 12.9693H7.11055Z" fill="black"/>
</g>
<defs>
<clipPath id="clip0_1411_186">
<rect width="8.26667" height="16" fill="white"/>
</clipPath>
</defs>
</svg>
