<svg width="38" height="33" viewBox="0 0 38 33" fill="none" xmlns="http://www.w3.org/2000/svg">
<mask id="path-1-inside-1_1456_397" fill="white">
<path d="M14.6701 0.673305C24.8114 -1.56138 34.8968 1.94818 37.1955 8.51217C39.3163 14.569 34.0661 21.1091 25.2746 23.8393L20.5646 32.0005C19.7948 33.3337 17.8696 33.3337 17.0998 32.0005L12.963 24.8335C6.89022 23.9335 1.98617 20.9344 0.46988 16.6049C-1.82874 10.041 4.52903 2.90809 14.6701 0.673305Z"/>
</mask>
<path d="M14.6701 0.673305C24.8114 -1.56138 34.8968 1.94818 37.1955 8.51217C39.3163 14.569 34.0661 21.1091 25.2746 23.8393L20.5646 32.0005C19.7948 33.3337 17.8696 33.3337 17.0998 32.0005L12.963 24.8335C6.89022 23.9335 1.98617 20.9344 0.46988 16.6049C-1.82874 10.041 4.52903 2.90809 14.6701 0.673305Z" fill="black"/>
<path d="M14.6701 0.673305L14.4549 -0.303267L14.4549 -0.303264L14.6701 0.673305ZM37.1955 8.51217L38.1393 8.18169L38.1393 8.18166L37.1955 8.51217ZM25.2746 23.8393L24.978 22.8843L24.6041 23.0004L24.4085 23.3395L25.2746 23.8393ZM20.5646 32.0005L21.4306 32.5005L21.4307 32.5003L20.5646 32.0005ZM17.0998 32.0005L16.2337 32.5004L16.2338 32.5005L17.0998 32.0005ZM12.963 24.8335L13.8291 24.3336L13.5876 23.9151L13.1096 23.8443L12.963 24.8335ZM0.46988 16.6049L-0.473922 16.9355L-0.473912 16.9355L0.46988 16.6049ZM14.6701 0.673305L14.8853 1.64988C19.7893 0.56924 24.6568 0.884574 28.5451 2.23768C32.4518 3.59719 35.2383 5.9488 36.2517 8.84268L37.1955 8.51217L38.1393 8.18166C36.854 4.51156 33.4485 1.82639 29.2024 0.34879C24.938 -1.13521 19.6921 -1.45731 14.4549 -0.303267L14.6701 0.673305ZM37.1955 8.51217L36.2517 8.84266C37.1744 11.478 36.5273 14.2757 34.5407 16.8056C32.545 19.3471 29.2234 21.5659 24.978 22.8843L25.2746 23.8393L25.5711 24.7943C30.1172 23.3825 33.8166 20.9662 36.1137 18.0408C38.4198 15.1039 39.3374 11.6032 38.1393 8.18169L37.1955 8.51217ZM25.2746 23.8393L24.4085 23.3395L19.6985 31.5006L20.5646 32.0005L21.4307 32.5003L26.1407 24.3392L25.2746 23.8393ZM20.5646 32.0005L19.6986 31.5004C19.3137 32.167 18.3507 32.167 17.9658 31.5004L17.0998 32.0005L16.2338 32.5005C17.3885 34.5003 20.2759 34.5003 21.4306 32.5005L20.5646 32.0005ZM17.0998 32.0005L17.9658 31.5006L13.8291 24.3336L12.963 24.8335L12.097 25.3334L16.2337 32.5004L17.0998 32.0005ZM12.963 24.8335L13.1096 23.8443C7.2062 22.9694 2.75274 20.0978 1.41367 16.2744L0.46988 16.6049L-0.473912 16.9355C1.2196 21.771 6.57424 24.8976 12.8165 25.8227L12.963 24.8335ZM0.46988 16.6049L1.41368 16.2744C0.415278 13.4234 1.25483 10.3701 3.65161 7.68108C6.055 4.98465 9.97772 2.73135 14.8853 1.64987L14.6701 0.673305L14.4549 -0.303264C9.22138 0.850041 4.89469 3.28062 2.15859 6.35033C-0.584121 9.42746 -1.77414 13.2226 -0.473922 16.9355L0.46988 16.6049Z" fill="#F3F1E7" mask="url(#path-1-inside-1_1456_397)"/>
</svg>
