<svg width="46" height="46" viewBox="0 0 46 46" fill="none" xmlns="http://www.w3.org/2000/svg">
<path d="M15 32.8174C15.6026 33 16.4165 33 17.8 33H28.2C29.5835 33 30.3974 33 31 32.8174M15 32.8174C14.8708 32.7783 14.7513 32.7308 14.638 32.673C14.0735 32.3854 13.6146 31.9265 13.327 31.362C13 30.7202 13 29.8802 13 28.2V17.8C13 16.1198 13 15.2798 13.327 14.638C13.6146 14.0735 14.0735 13.6146 14.638 13.327C15.2798 13 16.1198 13 17.8 13H28.2C29.8802 13 30.7202 13 31.362 13.327C31.9265 13.6146 32.3854 14.0735 32.673 14.638C33 15.2798 33 16.1198 33 17.8V28.2C33 29.8802 33 30.7202 32.673 31.362C32.3854 31.9265 31.9265 32.3854 31.362 32.673C31.2487 32.7308 31.1292 32.7783 31 32.8174M15 32.8174C15.0004 32.0081 15.0052 31.5799 15.0769 31.2196C15.3925 29.6329 16.6329 28.3925 18.2196 28.0769C18.606 28 19.0707 28 20 28H26C26.9293 28 27.394 28 27.7804 28.0769C29.3671 28.3925 30.6075 29.6329 30.9231 31.2196C30.9948 31.5799 30.9996 32.0081 31 32.8174M27 20.5C27 22.7091 25.2091 24.5 23 24.5C20.7909 24.5 19 22.7091 19 20.5C19 18.2909 20.7909 16.5 23 16.5C25.2091 16.5 27 18.2909 27 20.5Z" stroke="#1B1A1A" stroke-width="1.5" stroke-linecap="round" stroke-linejoin="round"/>
</svg>
