<svg width="46" height="46" viewBox="0 0 46 46" fill="none" xmlns="http://www.w3.org/2000/svg">
<path d="M31.4885 23.0001C31.4885 27.6881 27.6881 31.4885 23.0001 31.4885C21.871 31.4885 20.7934 31.2681 19.808 30.8679C19.6194 30.7913 19.5251 30.753 19.4489 30.7359C19.3743 30.7192 19.3191 30.7131 19.2427 30.7131C19.1646 30.713 19.0795 30.7272 18.9093 30.7556L15.5537 31.3149C15.2023 31.3734 15.0266 31.4027 14.8995 31.3482C14.7883 31.3005 14.6997 31.2119 14.652 31.1007C14.5975 30.9737 14.6268 30.798 14.6854 30.4466L15.2447 27.0909C15.273 26.9207 15.2872 26.8357 15.2872 26.7575C15.2872 26.6811 15.2811 26.6259 15.2644 26.5514C15.2473 26.4751 15.209 26.3808 15.1324 26.1922C14.7322 25.2068 14.5117 24.1292 14.5117 23.0001C14.5117 18.3121 18.3121 14.5117 23.0001 14.5117C27.6881 14.5117 31.4885 18.3121 31.4885 23.0001Z" stroke="#1B1A1A" stroke-width="1.6" stroke-linecap="round" stroke-linejoin="round"/>
</svg>
