<svg width="46" height="46" viewBox="0 0 46 46" fill="none" xmlns="http://www.w3.org/2000/svg">
<path d="M26.7978 29.1061C27.2266 30.7065 26.2768 32.3515 24.6764 32.7803C23.0761 33.2091 21.431 32.2594 21.0022 30.659M13.2087 22.7046C12.8192 21.3064 13.2242 19.7948 14.2606 18.7787M23.2982 16.8322C23.6024 16.2849 23.7026 15.6234 23.5277 14.9708C23.1704 13.6371 21.7995 12.8456 20.4659 13.203C19.1322 13.5603 18.3407 14.9312 18.6981 16.2649C18.873 16.9175 19.2905 17.4402 19.8276 17.7621M31.4709 17.8113C31.1091 16.4057 30.0025 15.2991 28.5969 14.9373M28.6425 20.5366C28.2855 19.2045 27.3326 18.0905 25.9933 17.4398C24.6541 16.789 23.0381 16.6548 21.5011 17.0667C19.964 17.4785 18.6317 18.4027 17.7972 19.6359C16.9627 20.8691 16.6944 22.3103 17.0514 23.6424C17.642 25.8465 17.5273 27.6048 17.1543 28.941C16.7293 30.4638 16.5167 31.2253 16.5741 31.3782C16.6398 31.5531 16.6874 31.6011 16.8616 31.6686C17.0139 31.7276 17.6536 31.5562 18.9332 31.2133L30.7983 28.0341C32.0778 27.6913 32.7176 27.5198 32.82 27.3926C32.9371 27.247 32.9542 27.1817 32.9237 26.9973C32.8969 26.8362 32.3322 26.2831 31.2026 25.1768C30.2116 24.2061 29.2331 22.7406 28.6425 20.5366Z" stroke="#1B1A1A" stroke-width="1.5" stroke-linejoin="round"/>
</svg>
