<svg width="38" height="33" viewBox="0 0 38 33" fill="none" xmlns="http://www.w3.org/2000/svg">
<mask id="path-1-inside-1_1456_393" fill="white">
<path d="M14.67 0.673243C24.811 -1.56137 34.8954 1.94849 37.1944 8.51211C39.3155 14.569 34.0662 21.11 25.2745 23.8402L20.5645 32.0004C19.7947 33.3337 17.8695 33.3337 17.0997 32.0004L12.963 24.8344C6.88997 23.9345 1.98601 20.9345 0.469811 16.6049C-1.82859 10.041 4.52896 2.90795 14.67 0.673243Z"/>
</mask>
<path d="M14.67 0.673243C24.811 -1.56137 34.8954 1.94849 37.1944 8.51211C39.3155 14.569 34.0662 21.11 25.2745 23.8402L20.5645 32.0004C19.7947 33.3337 17.8695 33.3337 17.0997 32.0004L12.963 24.8344C6.88997 23.9345 1.98601 20.9345 0.469811 16.6049C-1.82859 10.041 4.52896 2.90795 14.67 0.673243Z" fill="#FFEE54"/>
<path d="M14.67 0.673243L14.4548 -0.303328L14.4548 -0.303327L14.67 0.673243ZM37.1944 8.51211L38.1382 8.1816L38.1382 8.18153L37.1944 8.51211ZM25.2745 23.8402L24.9779 22.8852L24.6041 23.0013L24.4084 23.3403L25.2745 23.8402ZM20.5645 32.0004L21.4306 32.5004L21.4306 32.5003L20.5645 32.0004ZM17.0997 32.0004L16.2336 32.5003L16.2337 32.5004L17.0997 32.0004ZM12.963 24.8344L13.829 24.3344L13.5875 23.916L13.1096 23.8452L12.963 24.8344ZM0.469811 16.6049L-0.474 16.9354L-0.473991 16.9354L0.469811 16.6049ZM14.67 0.673243L14.8852 1.64982C19.7891 0.569214 24.6562 0.884634 28.5443 2.23777C32.4507 3.59731 35.237 5.94891 36.2506 8.84269L37.1944 8.51211L38.1382 8.18153C36.8528 4.51169 33.4474 1.82655 29.2016 0.348898C24.9375 -1.13514 19.6919 -1.45734 14.4548 -0.303328L14.67 0.673243ZM37.1944 8.51211L36.2506 8.84262C37.1735 11.4781 36.5266 14.276 34.5402 16.8062C32.5447 19.3478 29.2234 21.5668 24.9779 22.8852L25.2745 23.8402L25.5711 24.7952C30.1173 23.3834 33.8164 20.9668 36.1133 18.0412C38.4192 15.1041 39.3364 11.6031 38.1382 8.1816L37.1944 8.51211ZM25.2745 23.8402L24.4084 23.3403L19.6985 31.5005L20.5645 32.0004L21.4306 32.5003L26.1406 24.3401L25.2745 23.8402ZM20.5645 32.0004L19.6985 31.5004C19.3136 32.1671 18.3506 32.1671 17.9657 31.5004L17.0997 32.0004L16.2337 32.5004C17.3884 34.5004 20.2759 34.5004 21.4306 32.5004L20.5645 32.0004ZM17.0997 32.0004L17.9657 31.5004L13.829 24.3344L12.963 24.8344L12.0969 25.3343L16.2336 32.5003L17.0997 32.0004ZM12.963 24.8344L13.1096 23.8452C7.20606 22.9704 2.75262 20.098 1.41361 16.2744L0.469811 16.6049L-0.473991 16.9354C1.21939 21.771 6.57387 24.8985 12.8164 25.8236L12.963 24.8344ZM0.469811 16.6049L1.41362 16.2744C0.41531 13.4234 1.25488 10.37 3.65163 7.681C6.05499 4.98455 9.97766 2.73125 14.8852 1.64981L14.67 0.673243L14.4548 -0.303327C9.22131 0.84994 4.89468 3.28053 2.15861 6.35025C-0.584079 9.4274 -1.77409 13.2225 -0.474 16.9354L0.469811 16.6049Z" fill="#1B1A1A" mask="url(#path-1-inside-1_1456_393)"/>
</svg>
